<?xml version="1.0" standalone="no"?><!DOCTYPE svg PUBLIC "-//W3C//DTD SVG 1.1//EN" "http://www.w3.org/Graphics/SVG/1.1/DTD/svg11.dtd"><svg t="1776444751638" class="icon" viewBox="0 0 1024 1024" version="1.1" xmlns="http://www.w3.org/2000/svg" p-id="7698" width="256" height="256" xmlns:xlink="http://www.w3.org/1999/xlink"><path d="M512 192c-176.8 0-320 143.2-320 320s143.2 320 320 320c154.8 0 284-110 313.6-256H576c-35.4 0-64-28.6-64-64s28.6-64 64-64h288c51.6 0 99.2 42.8 94.4 101.2C939.6 779.2 746.8 960 512 960 264.6 960 64 759.4 64 512S264.6 64 512 64c114.8 0 219.4 43.2 298.6 114 26.4 23.6 28.6 64 5 90.4s-64 28.6-90.4 5C668.6 222.8 594 192 512 192z" p-id="7699" fill="#d81e06"></path></svg>